<svg width="100" height="88" viewBox="0 0 100 88" fill="none" xmlns="http://www.w3.org/2000/svg">
<path d="M44.516 10.9739L50.0002 16.4585L55.4852 10.9735C59.8168 6.64183 65.6918 4.2085 71.8181 4.2085C84.5752 4.2085 94.9168 14.5502 94.9168 27.3077C94.9168 33.4335 92.4831 39.3089 88.1514 43.6406L50.0002 81.7918L11.8489 43.641C7.51725 39.3089 5.0835 33.4331 5.0835 27.3072C5.0835 14.5502 15.4252 4.2085 28.1822 4.2085C34.3085 4.2085 40.1839 6.64183 44.516 10.9739Z" fill="#FFFACD"/>
<path d="M44.516 10.9739L50.0002 16.4585L55.4852 10.9735C59.8168 6.64183 65.6918 4.2085 71.8181 4.2085C84.5752 4.2085 94.9168 14.5502 94.9168 27.3077C94.9168 33.4335 92.4831 39.3089 88.1514 43.6406L50.0002 81.7918L11.8489 43.641C7.51725 39.3089 5.0835 33.4331 5.0835 27.3072C5.0835 14.5502 15.4252 4.2085 28.1822 4.2085C34.3085 4.2085 40.1839 6.64183 44.516 10.9739Z" stroke="#1D1D1B" stroke-width="8.33333"/>
<path d="M50.0004 16.4585L37.75 28.7085L50.0004 40.9585L37.75 53.2085" stroke="#1D1D1B" stroke-width="8.33333"/>
</svg>
